<svg width="18" height="18" viewBox="0 0 18 18" fill="none" xmlns="http://www.w3.org/2000/svg">
<path d="M17.9954 18V17.9993H17.9999V11.3978C17.9999 8.16826 17.3047 5.68051 13.5292 5.68051C11.7142 5.68051 10.4962 6.67651 9.99895 7.62076H9.94645V5.98201H6.3667V17.9993H10.0942V12.0488C10.0942 10.482 10.3912 8.96701 12.3314 8.96701C14.2432 8.96701 14.2717 10.755 14.2717 12.1493V18H17.9954Z" fill="white"/>
<path d="M0.296875 5.98276H4.02888V18H0.296875V5.98276Z" fill="white"/>
<path d="M2.1615 0C0.96825 0 0 0.96825 0 2.1615C0 3.35475 0.96825 4.34325 2.1615 4.34325C3.35475 4.34325 4.323 3.35475 4.323 2.1615C4.32225 0.96825 3.354 0 2.1615 0Z" fill="white"/>
</svg>
