<svg width="124" height="16" viewBox="0 0 124 16" fill="none" xmlns="http://www.w3.org/2000/svg">
<g clip-path="url(#clip0)">
<path d="M53.656 2.75036L50.8207 0.00190204L41.1545 9.36757V0H37.1431V16H53.6599V12.1141H43.9897L53.656 2.75036Z" fill="white"/>
<path d="M0 0H7.80682C10.3299 0 12.0774 0.639088 13.1868 1.73657C14.1528 2.65145 14.6496 3.88587 14.6496 5.46267V5.50833C14.6496 7.95436 13.3046 9.57679 11.2508 10.4232L15.1915 16H9.90972L6.58357 11.1536H4.57688V16H0V0ZM7.59672 7.68046C9.15573 7.68046 10.0511 6.94817 10.0511 5.77841V5.73277C10.0511 4.47551 9.10861 3.83072 7.57316 3.83072H4.57688V7.67095L7.59672 7.68046Z" fill="white"/>
<path d="M19.0459 0H32.3289V3.77176H23.5757V6.19496H31.5042V9.69092H23.5757V12.2282H32.4487V16H19.0459V0Z" fill="white"/>
<path d="M58.353 0H62.9319V12.1141H70.9311V16H58.353V0Z" fill="white"/>
<path d="M80.9566 0H85.3646L92.3959 16H87.4871L86.2835 13.1469H79.914L78.7359 16H73.9214L80.9566 0ZM84.9719 9.69092L83.1282 5.14693L81.2648 9.69472L84.9719 9.69092Z" fill="white"/>
<path d="M96.4619 0H101.072V16H96.4717L96.4619 0Z" fill="white"/>
<path d="M106.442 0H111.282L115.223 6.19496L119.164 0H124V16H119.447V6.81122L115.223 13.0746H115.129L110.927 6.85877V16.0019H106.442V0Z" fill="white"/>
</g>
<defs>
<clipPath id="clip0">
<rect width="124" height="16" fill="white"/>
</clipPath>
</defs>
</svg>
