<svg width="237" height="24" viewBox="0 0 237 24" fill="none" xmlns="http://www.w3.org/2000/svg">
<g clip-path="url(#clip0)">
<path d="M62.3104 6.09415L59.0178 3.00214L47.7925 13.5385V3H43.1341V21H62.3149V16.6284H51.0851L62.3104 6.09415Z" fill="black"/>
<path d="M0 3H9.06598C11.996 3 14.0254 3.71897 15.3137 4.95364C16.4355 5.98288 17.0124 7.37161 17.0124 9.1455V9.19687C17.0124 11.9486 15.4505 13.7739 13.0654 14.7261L17.6417 21H11.5081L7.64544 15.5478H5.31509V21H0V3ZM8.822 11.6405C10.6325 11.6405 11.6722 10.8167 11.6722 9.50071V9.44936C11.6722 8.03495 10.5777 7.30956 8.79464 7.30956H5.31509V11.6298L8.822 11.6405Z" fill="black"/>
<path d="M22.1177 3H37.5431V7.24323H27.378V9.96933H36.5854V13.9023H27.378V16.7568H37.6822V21H22.1177V3Z" fill="black"/>
<path d="M67.7646 3H73.082V16.6284H82.3714V21H67.7646V3Z" fill="black"/>
<path d="M94.014 3H99.133L107.298 21H101.598L100.2 17.7903H92.8032L91.4351 21H85.8441L94.014 3ZM98.677 13.9023L96.5359 8.7903L94.372 13.9066L98.677 13.9023Z" fill="black"/>
<path d="M112.021 3H117.374V21H112.032L112.021 3Z" fill="black"/>
<path d="M123.611 3H129.231L133.808 9.96933L138.384 3H144V21H138.712V10.6626L133.808 17.709H133.698L128.819 10.7161V21.0021H123.611V3Z" fill="black"/>
</g>
<path d="M155.792 18.054C155.672 18.054 155.582 18.036 155.522 18C155.462 17.976 155.432 17.928 155.432 17.856C155.432 17.76 155.468 17.694 155.54 17.658C155.624 17.622 155.726 17.592 155.846 17.568C156.122 17.508 156.32 17.424 156.44 17.316C156.56 17.196 156.62 17.016 156.62 16.776V11.7C156.5 11.7 156.362 11.7 156.206 11.7C156.05 11.688 155.876 11.676 155.684 11.664C155.648 11.652 155.594 11.61 155.522 11.538C155.462 11.466 155.432 11.4 155.432 11.34C155.432 11.316 155.45 11.298 155.486 11.286C155.522 11.262 155.546 11.244 155.558 11.232C155.774 11.124 155.96 11.028 156.116 10.944C156.272 10.86 156.44 10.776 156.62 10.692C156.62 9.648 156.746 8.778 156.998 8.082C157.262 7.386 157.598 6.834 158.006 6.426C158.414 6.018 158.846 5.73 159.302 5.562C159.758 5.382 160.184 5.292 160.58 5.292C161.252 5.292 161.75 5.394 162.074 5.598C162.398 5.802 162.56 6.06 162.56 6.372C162.56 6.612 162.5 6.792 162.38 6.912C162.26 7.032 162.116 7.092 161.948 7.092C161.84 7.092 161.738 7.05 161.642 6.966C161.558 6.882 161.456 6.786 161.336 6.678C161.18 6.522 160.988 6.378 160.76 6.246C160.532 6.102 160.22 6.03 159.824 6.03C159.26 6.03 158.792 6.276 158.42 6.768C158.06 7.26 157.88 8.016 157.88 9.036V10.62C157.88 10.692 157.898 10.74 157.934 10.764C157.982 10.788 158.03 10.8 158.078 10.8H160.328C160.388 10.8 160.442 10.818 160.49 10.854C160.538 10.89 160.562 10.938 160.562 10.998C160.562 11.082 160.55 11.172 160.526 11.268C160.514 11.364 160.49 11.448 160.454 11.52C160.418 11.616 160.364 11.664 160.292 11.664H158.222C158.078 11.664 157.982 11.688 157.934 11.736C157.898 11.772 157.88 11.826 157.88 11.898V16.776C157.88 17.016 157.958 17.196 158.114 17.316C158.27 17.424 158.588 17.508 159.068 17.568C159.344 17.604 159.482 17.7 159.482 17.856C159.482 17.928 159.452 17.976 159.392 18C159.332 18.036 159.242 18.054 159.122 18.054C158.762 18.054 158.444 18.036 158.168 18C157.892 17.976 157.598 17.964 157.286 17.964C157.082 17.964 156.914 17.97 156.782 17.982C156.65 17.994 156.512 18.006 156.368 18.018C156.224 18.042 156.032 18.054 155.792 18.054ZM164.485 18.252C163.813 18.252 163.207 18.096 162.667 17.784C162.127 17.472 161.695 17.046 161.371 16.506C161.059 15.954 160.903 15.33 160.903 14.634C160.903 14.13 160.999 13.638 161.191 13.158C161.395 12.678 161.677 12.24 162.037 11.844C162.397 11.448 162.817 11.136 163.297 10.908C163.777 10.668 164.293 10.548 164.845 10.548C165.541 10.548 166.165 10.716 166.717 11.052C167.281 11.388 167.725 11.832 168.049 12.384C168.385 12.924 168.553 13.518 168.553 14.166C168.553 14.862 168.397 15.522 168.085 16.146C167.785 16.77 167.335 17.28 166.735 17.676C166.135 18.06 165.385 18.252 164.485 18.252ZM164.863 17.712C165.271 17.712 165.637 17.634 165.961 17.478C166.285 17.322 166.537 17.07 166.717 16.722C166.861 16.446 166.957 16.11 167.005 15.714C167.053 15.318 167.077 14.946 167.077 14.598C167.077 14.022 166.969 13.47 166.753 12.942C166.549 12.402 166.255 11.964 165.871 11.628C165.499 11.28 165.055 11.106 164.539 11.106C164.215 11.106 163.921 11.16 163.657 11.268C163.405 11.364 163.171 11.55 162.955 11.826C162.715 12.126 162.559 12.492 162.487 12.924C162.415 13.356 162.379 13.788 162.379 14.22C162.379 14.808 162.487 15.372 162.703 15.912C162.919 16.44 163.213 16.872 163.585 17.208C163.957 17.544 164.383 17.712 164.863 17.712ZM170.068 18.054C169.948 18.054 169.858 18.036 169.798 18C169.738 17.976 169.708 17.928 169.708 17.856C169.708 17.76 169.744 17.7 169.816 17.676C169.888 17.64 169.99 17.604 170.122 17.568C170.35 17.508 170.518 17.424 170.626 17.316C170.746 17.196 170.806 17.052 170.806 16.884V13.014C170.806 12.69 170.758 12.408 170.662 12.168C170.566 11.928 170.368 11.778 170.068 11.718C170.02 11.706 169.978 11.676 169.942 11.628C169.906 11.58 169.888 11.532 169.888 11.484C169.888 11.364 169.942 11.292 170.05 11.268C170.362 11.172 170.686 11.034 171.022 10.854C171.37 10.662 171.64 10.506 171.832 10.386C171.904 10.338 171.958 10.308 171.994 10.296C172.042 10.272 172.078 10.26 172.102 10.26C172.162 10.26 172.192 10.302 172.192 10.386C172.192 10.422 172.186 10.512 172.174 10.656C172.174 10.8 172.168 10.968 172.156 11.16C172.156 11.352 172.15 11.544 172.138 11.736C172.138 11.76 172.15 11.772 172.174 11.772C172.366 11.532 172.576 11.322 172.804 11.142C173.044 10.962 173.284 10.818 173.524 10.71C173.776 10.602 174.016 10.548 174.244 10.548C174.496 10.548 174.7 10.602 174.856 10.71C175.024 10.818 175.108 10.956 175.108 11.124C175.108 11.244 175.072 11.376 175 11.52C174.94 11.664 174.856 11.79 174.748 11.898C174.64 12.006 174.526 12.06 174.406 12.06C174.334 12.06 174.256 12.048 174.172 12.024C174.088 11.988 173.998 11.946 173.902 11.898C173.806 11.862 173.71 11.826 173.614 11.79C173.518 11.754 173.422 11.736 173.326 11.736C173.038 11.736 172.756 11.838 172.48 12.042C172.216 12.246 172.084 12.648 172.084 13.248V16.884C172.084 17.04 172.168 17.172 172.336 17.28C172.504 17.376 172.738 17.472 173.038 17.568C173.17 17.604 173.272 17.64 173.344 17.676C173.416 17.712 173.452 17.772 173.452 17.856C173.452 17.988 173.332 18.054 173.092 18.054C172.732 18.054 172.456 18.036 172.264 18C172.084 17.976 171.838 17.964 171.526 17.964C171.322 17.964 171.154 17.97 171.022 17.982C170.902 17.994 170.77 18.006 170.626 18.018C170.494 18.042 170.308 18.054 170.068 18.054ZM186.127 18.27C185.287 18.27 184.477 18.126 183.697 17.838C182.917 17.55 182.221 17.142 181.609 16.614C180.997 16.074 180.511 15.432 180.151 14.688C179.803 13.932 179.629 13.098 179.629 12.186C179.629 11.31 179.815 10.5 180.187 9.756C180.559 9.012 181.069 8.364 181.717 7.812C182.365 7.26 183.103 6.834 183.931 6.534C184.771 6.222 185.653 6.066 186.577 6.066C187.045 6.066 187.441 6.084 187.765 6.12C188.089 6.156 188.401 6.21 188.701 6.282C189.013 6.342 189.373 6.426 189.781 6.534C189.961 6.582 190.087 6.654 190.159 6.75C190.243 6.846 190.291 6.978 190.303 7.146C190.327 7.422 190.357 7.722 190.393 8.046C190.429 8.358 190.453 8.748 190.465 9.216C190.477 9.3 190.435 9.372 190.339 9.432C190.255 9.48 190.159 9.492 190.051 9.468C189.955 9.444 189.889 9.366 189.853 9.234C189.733 8.778 189.595 8.388 189.439 8.064C189.283 7.728 189.049 7.452 188.737 7.236C188.437 7.032 188.071 6.882 187.639 6.786C187.219 6.678 186.763 6.624 186.271 6.624C185.575 6.624 184.927 6.768 184.327 7.056C183.739 7.332 183.229 7.716 182.797 8.208C182.377 8.688 182.047 9.234 181.807 9.846C181.567 10.458 181.447 11.094 181.447 11.754C181.447 12.486 181.561 13.206 181.789 13.914C182.029 14.622 182.365 15.264 182.797 15.84C183.241 16.404 183.763 16.86 184.363 17.208C184.975 17.544 185.653 17.712 186.397 17.712C187.261 17.712 187.975 17.514 188.539 17.118C189.103 16.722 189.583 16.17 189.979 15.462C190.063 15.306 190.183 15.228 190.339 15.228C190.507 15.228 190.591 15.324 190.591 15.516C190.591 15.612 190.567 15.768 190.519 15.984C190.471 16.188 190.405 16.41 190.321 16.65C190.249 16.878 190.177 17.082 190.105 17.262C190.021 17.43 189.949 17.538 189.889 17.586C189.841 17.634 189.721 17.688 189.529 17.748C189.085 17.928 188.551 18.06 187.927 18.144C187.315 18.228 186.715 18.27 186.127 18.27ZM192.282 18.054C192.042 18.054 191.922 17.988 191.922 17.856C191.922 17.748 192.06 17.652 192.336 17.568C192.516 17.508 192.684 17.43 192.84 17.334C193.008 17.238 193.098 17.07 193.11 16.83V7.812C193.11 7.488 193.056 7.206 192.948 6.966C192.84 6.714 192.63 6.564 192.318 6.516C192.21 6.492 192.156 6.408 192.156 6.264C192.156 6.156 192.204 6.084 192.3 6.048C192.468 5.988 192.666 5.922 192.894 5.85C193.134 5.778 193.38 5.7 193.632 5.616C193.884 5.52 194.106 5.43 194.298 5.346C194.346 5.322 194.382 5.31 194.406 5.31C194.442 5.31 194.472 5.322 194.496 5.346C194.52 5.37 194.532 5.4 194.532 5.436C194.532 5.508 194.514 5.61 194.478 5.742C194.454 5.874 194.43 6.102 194.406 6.426C194.382 6.75 194.37 7.236 194.37 7.884V11.016C194.37 11.208 194.376 11.346 194.388 11.43C194.412 11.514 194.448 11.598 194.496 11.682C194.688 11.538 194.922 11.382 195.198 11.214C195.486 11.034 195.804 10.878 196.152 10.746C196.5 10.614 196.86 10.548 197.232 10.548C197.82 10.548 198.306 10.782 198.69 11.25C199.086 11.706 199.284 12.288 199.284 12.996V16.776C199.284 17.016 199.362 17.196 199.518 17.316C199.674 17.424 199.842 17.508 200.022 17.568C200.154 17.604 200.256 17.646 200.328 17.694C200.4 17.73 200.436 17.784 200.436 17.856C200.436 17.988 200.316 18.054 200.076 18.054C199.836 18.054 199.65 18.042 199.518 18.018C199.398 18.006 199.278 17.994 199.158 17.982C199.05 17.97 198.888 17.964 198.672 17.964C198.468 17.964 198.306 17.97 198.186 17.982C198.066 17.994 197.94 18.006 197.808 18.018C197.688 18.042 197.508 18.054 197.268 18.054C197.028 18.054 196.908 17.988 196.908 17.856C196.908 17.772 196.944 17.718 197.016 17.694C197.088 17.658 197.19 17.616 197.322 17.568C197.502 17.508 197.664 17.424 197.808 17.316C197.952 17.196 198.024 17.016 198.024 16.776V13.104C198.024 12.804 197.934 12.534 197.754 12.294C197.586 12.042 197.376 11.844 197.124 11.7C196.872 11.556 196.614 11.484 196.35 11.484C196.122 11.484 195.858 11.52 195.558 11.592C195.258 11.652 195.024 11.748 194.856 11.88C194.664 12.036 194.532 12.198 194.46 12.366C194.4 12.534 194.37 12.804 194.37 13.176V16.83C194.382 17.07 194.454 17.238 194.586 17.334C194.73 17.43 194.892 17.508 195.072 17.568C195.204 17.604 195.3 17.646 195.36 17.694C195.432 17.73 195.468 17.784 195.468 17.856C195.468 17.988 195.348 18.054 195.108 18.054C194.868 18.054 194.688 18.042 194.568 18.018C194.448 18.006 194.334 17.994 194.226 17.982C194.118 17.97 193.956 17.964 193.74 17.964C193.536 17.964 193.368 17.97 193.236 17.982C193.116 17.994 192.984 18.006 192.84 18.018C192.708 18.042 192.522 18.054 192.282 18.054ZM201.726 18.054C201.606 18.054 201.516 18.036 201.456 18C201.396 17.976 201.366 17.928 201.366 17.856C201.366 17.76 201.402 17.7 201.474 17.676C201.546 17.64 201.648 17.604 201.78 17.568C202.008 17.508 202.176 17.424 202.284 17.316C202.404 17.196 202.464 17.052 202.464 16.884V13.014C202.464 12.69 202.416 12.408 202.32 12.168C202.224 11.928 202.026 11.778 201.726 11.718C201.678 11.706 201.636 11.676 201.6 11.628C201.564 11.58 201.546 11.532 201.546 11.484C201.546 11.364 201.6 11.292 201.708 11.268C202.02 11.172 202.344 11.034 202.68 10.854C203.028 10.662 203.298 10.506 203.49 10.386C203.562 10.338 203.616 10.308 203.652 10.296C203.7 10.272 203.736 10.26 203.76 10.26C203.82 10.26 203.85 10.302 203.85 10.386C203.85 10.422 203.844 10.512 203.832 10.656C203.832 10.8 203.826 10.968 203.814 11.16C203.814 11.352 203.808 11.544 203.796 11.736C203.796 11.76 203.808 11.772 203.832 11.772C204.024 11.532 204.234 11.322 204.462 11.142C204.702 10.962 204.942 10.818 205.182 10.71C205.434 10.602 205.674 10.548 205.902 10.548C206.154 10.548 206.358 10.602 206.514 10.71C206.682 10.818 206.766 10.956 206.766 11.124C206.766 11.244 206.73 11.376 206.658 11.52C206.598 11.664 206.514 11.79 206.406 11.898C206.298 12.006 206.184 12.06 206.064 12.06C205.992 12.06 205.914 12.048 205.83 12.024C205.746 11.988 205.656 11.946 205.56 11.898C205.464 11.862 205.368 11.826 205.272 11.79C205.176 11.754 205.08 11.736 204.984 11.736C204.696 11.736 204.414 11.838 204.138 12.042C203.874 12.246 203.742 12.648 203.742 13.248V16.884C203.742 17.04 203.826 17.172 203.994 17.28C204.162 17.376 204.396 17.472 204.696 17.568C204.828 17.604 204.93 17.64 205.002 17.676C205.074 17.712 205.11 17.772 205.11 17.856C205.11 17.988 204.99 18.054 204.75 18.054C204.39 18.054 204.114 18.036 203.922 18C203.742 17.976 203.496 17.964 203.184 17.964C202.98 17.964 202.812 17.97 202.68 17.982C202.56 17.994 202.428 18.006 202.284 18.018C202.152 18.042 201.966 18.054 201.726 18.054ZM211.067 18.252C210.395 18.252 209.789 18.096 209.249 17.784C208.709 17.472 208.277 17.046 207.953 16.506C207.641 15.954 207.485 15.33 207.485 14.634C207.485 14.13 207.581 13.638 207.773 13.158C207.977 12.678 208.259 12.24 208.619 11.844C208.979 11.448 209.399 11.136 209.879 10.908C210.359 10.668 210.875 10.548 211.427 10.548C212.123 10.548 212.747 10.716 213.299 11.052C213.863 11.388 214.307 11.832 214.631 12.384C214.967 12.924 215.135 13.518 215.135 14.166C215.135 14.862 214.979 15.522 214.667 16.146C214.367 16.77 213.917 17.28 213.317 17.676C212.717 18.06 211.967 18.252 211.067 18.252ZM211.445 17.712C211.853 17.712 212.219 17.634 212.543 17.478C212.867 17.322 213.119 17.07 213.299 16.722C213.443 16.446 213.539 16.11 213.587 15.714C213.635 15.318 213.659 14.946 213.659 14.598C213.659 14.022 213.551 13.47 213.335 12.942C213.131 12.402 212.837 11.964 212.453 11.628C212.081 11.28 211.637 11.106 211.121 11.106C210.797 11.106 210.503 11.16 210.239 11.268C209.987 11.364 209.753 11.55 209.537 11.826C209.297 12.126 209.141 12.492 209.069 12.924C208.997 13.356 208.961 13.788 208.961 14.22C208.961 14.808 209.069 15.372 209.285 15.912C209.501 16.44 209.795 16.872 210.167 17.208C210.539 17.544 210.965 17.712 211.445 17.712ZM216.56 18.054C216.464 18.054 216.38 18.042 216.308 18.018C216.236 17.994 216.2 17.94 216.2 17.856C216.2 17.772 216.236 17.712 216.308 17.676C216.392 17.64 216.494 17.604 216.614 17.568C216.782 17.508 216.95 17.442 217.118 17.37C217.298 17.286 217.388 17.124 217.388 16.884V13.014C217.388 12.69 217.352 12.408 217.28 12.168C217.208 11.916 217.016 11.766 216.704 11.718C216.656 11.706 216.614 11.682 216.578 11.646C216.554 11.61 216.542 11.556 216.542 11.484C216.542 11.364 216.59 11.292 216.686 11.268C217.01 11.184 217.268 11.1 217.46 11.016C217.652 10.92 217.82 10.818 217.964 10.71C218.12 10.59 218.306 10.464 218.522 10.332C218.546 10.32 218.57 10.308 218.594 10.296C218.618 10.272 218.648 10.26 218.684 10.26C218.756 10.26 218.792 10.302 218.792 10.386C218.792 10.47 218.774 10.644 218.738 10.908C218.714 11.16 218.702 11.37 218.702 11.538C218.702 11.658 218.714 11.73 218.738 11.754H218.774C219.05 11.49 219.41 11.226 219.854 10.962C220.31 10.686 220.886 10.548 221.582 10.548C222.014 10.548 222.374 10.644 222.662 10.836C222.95 11.016 223.19 11.334 223.382 11.79H223.436C223.82 11.442 224.258 11.148 224.75 10.908C225.242 10.668 225.782 10.548 226.37 10.548C226.766 10.548 227.096 10.668 227.36 10.908C227.624 11.148 227.822 11.46 227.954 11.844C228.098 12.228 228.17 12.63 228.17 13.05V16.884C228.17 17.124 228.254 17.286 228.422 17.37C228.59 17.442 228.764 17.508 228.944 17.568C229.064 17.604 229.16 17.64 229.232 17.676C229.316 17.712 229.358 17.772 229.358 17.856C229.358 17.928 229.328 17.976 229.268 18C229.22 18.036 229.13 18.054 228.998 18.054C228.758 18.054 228.572 18.042 228.44 18.018C228.308 18.006 228.182 17.994 228.062 17.982C227.954 17.97 227.792 17.964 227.576 17.964C227.372 17.964 227.204 17.97 227.072 17.982C226.94 17.994 226.802 18.006 226.658 18.018C226.514 18.042 226.322 18.054 226.082 18.054C225.974 18.054 225.884 18.036 225.812 18C225.752 17.976 225.722 17.928 225.722 17.856C225.722 17.76 225.758 17.694 225.83 17.658C225.914 17.622 226.016 17.592 226.136 17.568C226.328 17.52 226.502 17.454 226.658 17.37C226.826 17.286 226.91 17.124 226.91 16.884V13.104C226.91 12.816 226.844 12.546 226.712 12.294C226.58 12.03 226.406 11.814 226.19 11.646C225.974 11.478 225.734 11.394 225.47 11.394C225.17 11.394 224.888 11.43 224.624 11.502C224.372 11.574 224.132 11.7 223.904 11.88C223.568 12.144 223.4 12.576 223.4 13.176V16.884C223.4 17.124 223.49 17.286 223.67 17.37C223.85 17.454 224.03 17.52 224.21 17.568C224.33 17.592 224.426 17.628 224.498 17.676C224.582 17.712 224.624 17.772 224.624 17.856C224.624 17.928 224.594 17.976 224.534 18C224.474 18.036 224.384 18.054 224.264 18.054C224.024 18.054 223.832 18.042 223.688 18.018C223.556 18.006 223.424 17.994 223.292 17.982C223.172 17.97 223.004 17.964 222.788 17.964C222.584 17.964 222.416 17.97 222.284 17.982C222.152 17.994 222.014 18.006 221.87 18.018C221.726 18.042 221.534 18.054 221.294 18.054C221.198 18.054 221.114 18.036 221.042 18C220.97 17.976 220.934 17.928 220.934 17.856C220.934 17.76 220.976 17.7 221.06 17.676C221.156 17.64 221.252 17.604 221.348 17.568C221.528 17.508 221.702 17.442 221.87 17.37C222.05 17.286 222.14 17.124 222.14 16.884V13.104C222.14 12.816 222.074 12.546 221.942 12.294C221.81 12.03 221.636 11.814 221.42 11.646C221.204 11.478 220.964 11.394 220.7 11.394C220.4 11.394 220.118 11.43 219.854 11.502C219.602 11.574 219.362 11.7 219.134 11.88C218.81 12.12 218.648 12.552 218.648 13.176V16.884C218.648 17.124 218.732 17.286 218.9 17.37C219.068 17.442 219.242 17.508 219.422 17.568C219.518 17.604 219.608 17.64 219.692 17.676C219.788 17.7 219.836 17.76 219.836 17.856C219.836 17.928 219.8 17.976 219.728 18C219.668 18.036 219.584 18.054 219.476 18.054C219.236 18.054 219.044 18.042 218.9 18.018C218.768 18.006 218.642 17.994 218.522 17.982C218.402 17.97 218.234 17.964 218.018 17.964C217.814 17.964 217.646 17.97 217.514 17.982C217.394 17.994 217.262 18.006 217.118 18.018C216.986 18.042 216.8 18.054 216.56 18.054ZM233.611 18.27C232.951 18.27 232.375 18.108 231.883 17.784C231.391 17.46 231.007 17.004 230.731 16.416C230.455 15.816 230.317 15.126 230.317 14.346C230.317 13.65 230.473 13.02 230.785 12.456C231.109 11.88 231.535 11.418 232.063 11.07C232.591 10.722 233.167 10.548 233.791 10.548C234.271 10.548 234.697 10.644 235.069 10.836C235.441 11.028 235.729 11.298 235.933 11.646C236.149 11.982 236.257 12.372 236.257 12.816C236.257 13.188 236.077 13.374 235.717 13.374H231.919C231.751 13.374 231.631 13.422 231.559 13.518C231.499 13.602 231.469 13.776 231.469 14.04C231.469 14.616 231.595 15.144 231.847 15.624C232.099 16.092 232.435 16.47 232.855 16.758C233.275 17.034 233.737 17.172 234.241 17.172C234.601 17.172 234.925 17.106 235.213 16.974C235.513 16.83 235.777 16.626 236.005 16.362C236.053 16.302 236.089 16.266 236.113 16.254C236.137 16.23 236.167 16.218 236.203 16.218C236.299 16.218 236.347 16.278 236.347 16.398C236.347 16.626 236.239 16.878 236.023 17.154C235.843 17.382 235.627 17.58 235.375 17.748C235.123 17.916 234.847 18.042 234.547 18.126C234.247 18.222 233.935 18.27 233.611 18.27ZM231.955 12.816H233.593C233.881 12.816 234.127 12.81 234.331 12.798C234.535 12.786 234.733 12.762 234.925 12.726C234.985 12.714 235.021 12.678 235.033 12.618C235.057 12.546 235.069 12.45 235.069 12.33C235.069 11.982 234.913 11.688 234.601 11.448C234.301 11.196 233.941 11.07 233.521 11.07C233.245 11.07 232.969 11.154 232.693 11.322C232.417 11.478 232.189 11.676 232.009 11.916C231.829 12.156 231.739 12.396 231.739 12.636C231.739 12.756 231.811 12.816 231.955 12.816Z" fill="#2432C8"/>
<defs>
<clipPath id="clip0">
<rect width="144" height="18" fill="white" transform="translate(0 3)"/>
</clipPath>
</defs>
</svg>
