<svg width="24" height="24" viewBox="0 0 24 24" fill="none" xmlns="http://www.w3.org/2000/svg">
<g id="snooze_24px">
<path id="icon/av/snooze_24px" fill-rule="evenodd" clip-rule="evenodd" d="M2.05524 5.74863L3.33644 7.28443L7.94374 3.44083L6.66264 1.90503L2.05524 5.74863ZM16.0561 3.44133L17.3373 1.90553L21.9447 5.74913L20.6635 7.28493L16.0561 3.44133ZM8.99974 11.0948H12.6297L8.99974 15.2948V17.0948H14.9997V15.0948H11.3697L14.9997 10.8948V9.09483H8.99974V11.0948ZM11.9997 6.09483C15.8597 6.09483 18.9997 9.23483 18.9997 13.0948C18.9997 16.9548 15.8597 20.0948 11.9997 20.0948C8.13974 20.0948 4.99974 16.9548 4.99974 13.0948C4.99974 9.23483 8.13974 6.09483 11.9997 6.09483ZM2.99974 13.0948C2.99974 8.12483 7.02974 4.09483 11.9997 4.09483C16.9697 4.09483 20.9997 8.12483 20.9997 13.0948C20.9997 18.0648 16.9697 22.0948 11.9997 22.0948C7.02974 22.0948 2.99974 18.0648 2.99974 13.0948Z" fill="#2432C8"/>
</g>
</svg>
