<svg width="24" height="23" viewBox="0 0 24 23" fill="none" xmlns="http://www.w3.org/2000/svg">
<path d="M23.5558 17.0881L15.0755 1.81373C14.4474 0.678047 13.2978 0 12 0C10.7023 0 9.55265 0.678 8.92523 1.81266L0.444274 17.0881C0.444087 17.0885 0.443853 17.0888 0.443665 17.0892C-0.164585 18.1892 -0.146444 19.4923 0.492087 20.5749C1.13062 21.6575 2.26218 22.3039 3.51909 22.3039H20.4811C21.738 22.3039 22.8696 21.6575 23.508 20.5749C24.1465 19.4922 24.1647 18.1891 23.5558 17.0881ZM22.2973 19.8608C21.9141 20.5103 21.2352 20.8982 20.481 20.8982H3.51909C2.76491 20.8982 2.08598 20.5103 1.70287 19.8608C1.31976 19.2113 1.30888 18.4295 1.67366 17.7696L10.1548 2.49394C10.5316 1.81252 11.2213 1.40569 12 1.40569C12.7787 1.40569 13.4685 1.81256 13.8459 2.49501L22.3263 17.7694C22.6912 18.4293 22.6804 19.2112 22.2973 19.8608Z" fill="black"/>
<g opacity="0.5">
<path d="M12 14.9595C10.8374 14.9595 9.89148 15.9054 9.89148 17.068C9.89148 18.2306 10.8374 19.1765 12 19.1765C13.1627 19.1765 14.1085 18.2306 14.1085 17.068C14.1085 15.9054 13.1626 14.9595 12 14.9595Z" fill="black"/>
<path d="M11.9978 5.46777C10.8363 5.46777 9.89148 6.31683 9.89148 7.36049V12.4172C9.89148 13.4608 10.8363 14.3099 12.0023 14.3099C13.1637 14.3099 14.1085 13.4608 14.1085 12.4172V7.36049C14.1085 6.31683 13.1637 5.46777 11.9978 5.46777Z" fill="black"/>
</g>
<path d="M12 14.9595C10.8374 14.9595 9.89148 15.9054 9.89148 17.068C9.89148 18.2306 10.8374 19.1765 12 19.1765C13.1627 19.1765 14.1085 18.2306 14.1085 17.068C14.1085 15.9054 13.1626 14.9595 12 14.9595ZM12 17.7708C11.6124 17.7708 11.2972 17.4556 11.2972 17.068C11.2972 16.6804 11.6124 16.3652 12 16.3652C12.3876 16.3652 12.7029 16.6804 12.7029 17.068C12.7029 17.4556 12.3875 17.7708 12 17.7708Z" fill="black"/>
<path d="M11.9978 5.46777C10.8363 5.46777 9.89148 6.31683 9.89148 7.36049V12.4172C9.89148 13.4608 10.8363 14.3099 12.0023 14.3099C13.1637 14.3099 14.1085 13.4608 14.1085 12.4172V7.36049C14.1085 6.31683 13.1637 5.46777 11.9978 5.46777ZM12.7029 12.4172C12.7029 12.7643 12.3886 13.0468 11.9978 13.0468C11.6115 13.0468 11.2972 12.7643 11.2972 12.4172V7.36049C11.2972 7.01336 11.6115 6.73093 12.0023 6.73093C12.3886 6.73093 12.7029 7.01336 12.7029 7.36049V12.4172Z" fill="black"/>
</svg>
